<svg xmlns="http://www.w3.org/2000/svg" xmlns:xlink="http://www.w3.org/1999/xlink" width="450" viewBox="0 0 637 840">
  <defs>
    <filter id="LINEA_STOP" x="90" y="0" width="520" height="484" filterUnits="userSpaceOnUse">
      <feOffset dy="3" input="SourceAlpha"/>
      <feGaussianBlur stdDeviation="3" result="blur"/>
      <feFlood flood-color="#0b1944"/>
      <feComposite operator="in" in2="blur"/>
      <feComposite in="SourceGraphic"/>
    </filter>
    <linearGradient id="linear-gradient" x1="0%" y1="0%" x2="100%" y2="0%" gradientUnits="objectBoundingBox">
      <stop offset="0%" stop-color="#0b1944"/>
      <stop offset="50%" stop-color="#00edff"/>
      <stop offset="100%" stop-color="#b9e67e"/>
    </linearGradient>
    <filter id="Uni贸n_1" x="0" y="486" width="637" height="114" filterUnits="userSpaceOnUse">
      <feOffset dy="3" input="SourceAlpha"/>
      <feGaussianBlur stdDeviation="3" result="blur-2"/>
      <feFlood flood-color="#0b1944"/>
      <feComposite operator="in" in2="blur-2"/>
      <feComposite in="SourceGraphic"/>
    </filter>
    <filter id="DEJAR_DE_FUMAR_ES_POSIBLE" x="30" y="646" width="577" height="194" filterUnits="userSpaceOnUse">
      <feOffset dy="3" input="SourceAlpha"/>
      <feGaussianBlur stdDeviation="3" result="blur-3"/>
      <feFlood flood-color="#0b1944"/>
      <feComposite operator="in" in2="blur-3"/>
      <feComposite in="SourceGraphic"/>
    </filter>
  </defs>
  <g id="Grupo_51" data-name="Grupo 51" transform="translate(-131 -128)">
    <g id="Grupo_48" data-name="Grupo 48" transform="translate(62 64)">
      <g id="Grupo_30" data-name="Grupo 30" transform="translate(137.387 70)">
        <g id="Grupo_1" data-name="Grupo 1">
          <g transform="matrix(1, 0, 0, 1, -68.39, -6)" filter="url(#LINEA_STOP)">
            <text id="LINEA_STOP-2" data-name="LINEA
STOP" transform="translate(319 195)" fill="#fff" font-size="175" font-family="Opens Sans, sans-serif" font-weight="700"><tspan x="-250.922" y="0">LINEA</tspan><tspan x="-217.169" y="233">STOP</tspan></text>
          </g>
        </g>
      </g>
      <g transform="matrix(1, 0, 0, 1, 69, 64)" filter="url(#Uni贸n_1)">
        <path id="Uni贸n_1-2" data-name="Uni贸n 1" d="M522.9,48a48.05,48.05,0,1,1,48.05,48A48.025,48.025,0,0,1,522.9,48ZM0,87.528V8.469H503.113V87.528Z" transform="translate(9 492)" fill="url(#linear-gradient)"/>
      </g>
    </g>
    <g id="Grupo_50" data-name="Grupo 50" transform="translate(766.387 780)">
      <g id="Grupo_1-2" data-name="Grupo 1" transform="translate(-691.387)">
        <g transform="matrix(1, 0, 0, 1, 56, -652)" filter="url(#DEJAR_DE_FUMAR_ES_POSIBLE)">
          <text id="DEJAR_DE_FUMAR_ES_POSIBLE-2" data-name="DEJAR DE FUMAR
ES POSIBLE" transform="translate(318 723)" fill="#fff" font-size="60"  font-family="Opens Sans, sans-serif" font-weight="700"><tspan x="-278.599" y="0">DEJAR DE FUMAR</tspan><tspan x="-175.006" y="88">ES POSIBLE</tspan></text>
        </g>
      </g>
    </g>
  </g>
</svg>
