<svg xmlns="http://www.w3.org/2000/svg" 
xmlns:xlink="http://www.w3.org/1999/xlink" 
width="600" height="800" viewBox="0 0 637 840">
<defs><style>.a,.c{fill:#fff;font-family:SegoeUI-Bold, Segoe UI;font-weight:700;}.a{font-size:175px;}.b{fill:url(#c);}.c{font-size:66px;}.d{filter:url(#f);}.e{filter:url(#d);}.f{filter:url(#a);}</style><filter id="a" x="59" y="0" width="520" height="484" filterUnits="userSpaceOnUse"><feOffset dy="3" input="SourceAlpha"/><feGaussianBlur stdDeviation="3" result="b"/><feFlood flood-color="#0b1944"/><feComposite operator="in" in2="b"/><feComposite in="SourceGraphic"/></filter><linearGradient id="c" x1="1" y1="1" x2="0.044" y2="0.054" gradientUnits="objectBoundingBox"><stop offset="0" stop-color="#b9e67e"/><stop offset="0.414" stop-color="#00edff"/><stop offset="1" stop-color="#0b1944"/></linearGradient><filter id="d" x="0" y="486" width="637" height="114" filterUnits="userSpaceOnUse"><feOffset dy="3" input="SourceAlpha"/><feGaussianBlur stdDeviation="3" result="e"/><feFlood flood-color="#0b1944"/><feComposite operator="in" in2="e"/><feComposite in="SourceGraphic"/></filter><filter id="f" x="30" y="646" width="577" height="194" filterUnits="userSpaceOnUse"><feOffset dy="3" input="SourceAlpha"/><feGaussianBlur stdDeviation="3" result="g"/><feFlood flood-color="#0b1944"/><feComposite operator="in" in2="g"/><feComposite in="SourceGraphic"/></filter></defs><g transform="translate(-131 -128)"><g transform="translate(62 64)"><g transform="translate(137.387 70)"><g class="f" transform="matrix(1, 0, 0, 1, -68.39, -6)"><text class="a" transform="translate(319 195)"><tspan x="-250.922" y="0">LINEA</tspan><tspan x="-217.169" y="233">STOP</tspan></text></g></g><g class="e" transform="matrix(1, 0, 0, 1, 69, 64)"><path class="b" d="M522.9,48a48.05,48.05,0,1,1,48.05,48A48.025,48.025,0,0,1,522.9,48ZM0,87.528V8.469H503.113V87.528Z" transform="translate(9 492)"/></g></g><g transform="translate(766.387 780)"><g transform="translate(-691.387)"><g class="d" transform="matrix(1, 0, 0, 1, 56, -652)"><text class="c" transform="translate(318 723)"><tspan x="-278.599" y="0">DEJAR DE FUMAR</tspan><tspan x="-175.006" y="88">ES POSIBLE</tspan></text></g></g></g></g></svg>